<svg width="36" height="36" viewBox="0 0 36 36" fill="none" xmlns="http://www.w3.org/2000/svg">
<path d="M30 9H6V6H30V9ZM19.5 23.25C19.5 24.96 20.145 26.79 21 28.5V30H6V21H4.5V18L6 10.5H30L31.05 15.75C30 15.27 28.92 15 27.75 15C23.25 15 19.5 18.75 19.5 23.25ZM18 21H9V27H18V21ZM33 23.25C33 27.15 27.75 33 27.75 33C27.75 33 22.5 27.15 22.5 23.25C22.5 20.4 24.9 18 27.75 18C30.6 18 33 20.4 33 23.25ZM29.55 23.4C29.55 22.5 28.65 21.6 27.75 21.6C26.85 21.6 25.95 22.35 25.95 23.4C25.95 24.3 26.7 25.2 27.75 25.2C28.8 25.2 29.7 24.3 29.55 23.4V23.4Z" fill="white"/>
</svg>
